<svg id="SvgjsSvg1116" width="288" height="288" xmlns="http://www.w3.org/2000/svg" version="1.1" xmlns:xlink="http://www.w3.org/1999/xlink" xmlns:svgjs="http://svgjs.com/svgjs"><defs id="SvgjsDefs1117"></defs><g id="SvgjsG1118"><svg xmlns="http://www.w3.org/2000/svg" width="288" height="288" viewBox="0 0 48 48"><path fill="none" d="M0 0h48v48h-48z"></path><path d="M14 28c-3.31 0-6 2.69-6 6 0 2.62-2.31 4-4 4 1.84 2.44 4.99 4 8 4 4.42 0 8-3.58 8-8 0-3.31-2.69-6-6-6zm27.41-18.74l-2.67-2.67c-.78-.78-2.05-.78-2.83 0l-17.91 17.91 5.5 5.5 17.91-17.91c.79-.79.79-2.05 0-2.83z" fill="#ffffff" class="color000 svgShape"></path></svg></g></svg>